#!OML:ASF F:\VICON\USERDATA\INSTALL\Justin_Nancy\Justin_Nancy.ASF
:FULLY-SPECIFIED
:DEGREES
1
root -11.2119 16.6611 -35.628 -2.53731 -2.31569 -0.911955
lowerback 13.1293 -3.69599 -1.25858
upperback 0.417329 -4.79121 4.54041
thorax -6.41367 -2.24742 6.41901
lowerneck -9.16631 1.00832 -12.1019
upperneck 14.5542 2.83408 2.42192
head 5.73382 0.895466 2.94846
rclavicle 6.94752e-014 -2.22639e-014
rhumerus -49.8368 24.7658 -96.5583
rradius 101.103
rwrist -8.13294
rhand -13.4392 24.5381
rfingers 7.12502
rthumb 12.6698 -5.05763
lclavicle 6.94752e-014 -2.22639e-014
lhumerus -54.1144 -1.13326 92.0614
lradius 76.0273
lwrist 11.7985
lhand -23.7582 6.38878
lfingers 7.12502
lthumb 2.7109 36.3513
rfemur -23.384 -2.73137 25.8699
rtibia 51.9456
rfoot -16.205 -12.7318
rtoes -5.39722
lfemur -31.354 -1.28769 -19.0488
ltibia 77.96
lfoot -11.5347 0.139503
ltoes -15.9562
2
root -11.2149 16.6582 -35.0805 -2.8457 -2.20332 -1.14264
lowerback 13.2472 -3.04965 -0.651291
upperback 0.73091 -3.85836 4.31067
thorax -6.30687 -1.81563 5.65677
lowerneck -9.5418 0.358065 -11.35
upperneck 14.6947 1.90981 2.31532
head 5.91628 0.475022 2.73565
rclavicle -3.72721e-014 2.62396e-014
rhumerus -52.1604 25.1097 -96.0488
rradius 104.503
rwrist -8.66363
rhand -13.851 24.2628
rfingers 7.12502
rthumb 12.2728 -5.35706
lclavicle -3.72721e-014 2.62396e-014
lhumerus -55.0052 -2.53543 92.2183
lradius 76.2264
lwrist 11.8699
lhand -23.4428 7.46023
lfingers 7.12502
lthumb 3.01546 37.4187
rfemur -21.3836 -2.68233 25.8116
rtibia 53.0433
rfoot -17.3127 -12.7024
rtoes -6.91983
lfemur -33.1098 -1.33742 -19.2008
ltibia 75.7752
lfoot -11.4347 0.205876
ltoes -16.2961
3
root -11.1702 16.729 -34.4327 -3.74695 -4.19781 -1.2533
lowerback 12.2802 -1.88423 0.766061
upperback 2.00956 -2.21371 3.64485
thorax -4.65541 -1.08524 3.74836
lowerneck -10.7223 -0.308004 -10.62
upperneck 14.7706 1.00364 2.53393
head 6.20365 0.0942372 2.6288
rclavicle -1.98785e-015 -7.95139e-015
rhumerus -49.9104 23.9758 -95.5271
rradius 105.534
rwrist -9.09594
rhand -14.3078 24.7065
rfingers 7.12502
rthumb 11.8323 -4.93921
lclavicle -1.98785e-015 -7.95139e-015
lhumerus -55.0501 -4.41606 92.1145
lradius 76.7353
lwrist 12.9218
lhand -22.7228 7.18738
lfingers 7.12502
lthumb 3.71077 37.1348
rfemur -18.6493 -1.41398 25.4131
rtibia 54.2749
rfoot -17.3639 -11.9813
rtoes -11.4472
lfemur -32.8631 0.0281341 -19.6543
ltibia 72.6973
lfoot -11.3953 1.0905
ltoes -15.4064
4
root -11.2727 16.6771 -34.0831 -3.00905 0.00388767 -1.49172
lowerback 13.2063 -3.7329 -0.84517
upperback 0.860393 -4.78086 4.61037
thorax -6.01292 -2.2709 6.23531
lowerneck -7.72987 0.671441 -12.0652
upperneck 13.685 2.11339 2.74016
head 5.26316 0.601359 2.96545
rclavicle 3.3694e-014 1.59028e-015
rhumerus -50.7388 27.3901 -96.2461
rradius 107.068
rwrist -10.4876
rhand -15.0298 26.0217
rfingers 7.12502
rthumb 11.136 -3.66281
lclavicle 3.3694e-014 1.59028e-015
lhumerus -57.6359 -1.46109 91.9987
lradius 78.2001
lwrist 14.2047
lhand -22.0007 6.8879
lfingers 7.12502
lthumb 4.40805 36.822
rfemur -19.0229 -4.53801 25.7935
rtibia 56.0011
rfoot -16.3588 -12.1143
rtoes -16.8368
lfemur -36.8942 -2.82748 -19.5178
ltibia 69.8372
lfoot -10.0654 -0.109836
ltoes -16.6028
5
root -11.1805 16.7943 -33.3593 -3.66525 -3.01734 -1.24428
lowerback 11.9549 -1.90155 0.481013
upperback 1.70195 -2.25774 3.92342
thorax -4.7741 -1.0968 4.20692
lowerneck -8.71404 -0.403442 -11.146
upperneck 14.6093 0.678864 2.72068
head 5.82903 -0.0792627 2.73591
rclavicle 7.7526e-015 -7.15625e-015
rhumerus -49.9289 25.2867 -95.1791
rradius 108.853
rwrist -11.5908
rhand -15.4782 28.3549
rfingers 7.12502
rthumb 10.7035 -1.35241
lclavicle 7.7526e-015 -7.15625e-015
lhumerus -58.7633 -4.34576 92.9764
lradius 79.6379
lwrist 15.9113
lhand -21.4726 6.94248
lfingers 7.12502
lthumb 4.91802 36.8654
rfemur -16.5291 -2.7246 24.5488
rtibia 57.249
rfoot -15.0971 -9.66475
rtoes -22.7032
lfemur -35.6789 -1.02819 -20.5839
ltibia 65.666
lfoot -10.9843 1.9937
ltoes -19.5782
6
root -11.1578 16.8466 -32.7918 -4.00921 -3.19013 -1.17731
lowerback 12.0228 -1.23305 0.978584
upperback 2.05855 -1.33023 3.64291
thorax -4.51691 -0.652437 3.47512
lowerneck -9.26648 -1.00079 -10.6442
upperneck 14.7809 -0.158197 2.86126
head 6.03422 -0.449711 2.64033
rclavicle -2.18663e-015 1.82882e-014
rhumerus -48.8713 24.0481 -94.1098
rradius 110.696
rwrist -14.1312
rhand -14.2137 33.5022
rfingers 7.12502
rthumb 11.923 3.86173
lclavicle -2.18663e-015 1.82882e-014
lhumerus -59.8312 -6.25184 93.6702
lradius 81.1063
lwrist 17.5014
lhand -21.3274 6.80014
lfingers 7.12502
lthumb 5.05822 36.7198
rfemur -15.5813 -2.75862 23.7507
rtibia 59.2575
rfoot -12.3532 -7.52855
rtoes -22.9299
lfemur -35.8947 -1.24131 -21.1864
ltibia 61.2771
lfoot -10.4151 2.64444
ltoes -19.2501
7
root -11.1373 16.8939 -32.2483 -4.1425 -2.61947 -1.01382
lowerback 14.1215 -1.08012 -0.547396
upperback 0.621842 -1.16404 4.80926
thorax -7.16473 -0.466958 5.69581
lowerneck -8.02077 -0.885974 -11.7714
upperneck 15.6038 0.100187 2.33694
head 6.07595 -0.460054 2.68011
rclavicle 6.85807e-014 -5.40694e-014
rhumerus -50.6968 24.9483 -92.1856
rradius 113.029
rwrist -20.1619
rhand -11.4813 49.1692
rfingers 7.12502
rthumb 14.5568 19.7
lclavicle 6.85807e-014 -5.40694e-014
lhumerus -63.5318 -4.8674 95.9738
lradius 82.5938
lwrist 18.2088
lhand -21.1562 6.35619
lfingers 7.12502
lthumb 5.2235 36.2718
rfemur -15.201 -3.51151 22.6891
rtibia 61.259
rfoot -8.5599 -4.99124
rtoes -22.6872
lfemur -35.9088 -2.18109 -21.7964
ltibia 56.383
lfoot -9.74886 2.66731
ltoes -16.0278
8
root -11.1243 16.9355 -31.7095 -4.2336 -1.95615 -0.746547
lowerback 15.264 -1.1988 -1.87766
upperback -0.360849 -1.43133 5.59726
thorax -8.80062 -0.461714 7.49895
lowerneck -6.32154 -0.501182 -12.642
upperneck 15.856 0.561035 1.97211
head 5.84016 -0.327972 2.73387
rclavicle -4.82053e-015 6.36111e-015
rhumerus -52.386 27.1612 -92.2658
rradius 114.363
rwrist -18.6515
rhand -14.4773 47.5455
rfingers 7.12502
rthumb 11.6688 17.8904
lclavicle -4.82053e-015 6.36111e-015
lhumerus -66.7591 -3.13886 97.3419
lradius 84.2196
lwrist 18.7353
lhand -20.8755 6.39527
lfingers 7.12502
lthumb 5.49457 36.304
rfemur -15.2893 -4.40563 21.4715
rtibia 63.463
rfoot -3.94627 -2.23934
rtoes -22.6723
lfemur -35.8036 -2.79396 -22.5612
ltibia 51.2353
lfoot -8.29605 1.94788
ltoes -16.96
9
root -11.1257 16.9743 -31.1672 -4.46927 -2.09897 -0.581317
lowerback 15.3004 -0.677777 -1.77038
upperback -0.126912 -0.754737 5.24335
thorax -8.66438 -0.157031 6.8817
lowerneck -6.47064 -0.908963 -11.9016
upperneck 16.1428 -0.0533292 1.95508
head 5.99638 -0.593921 2.57082
rclavicle 3.13086e-015 -3.81667e-014
rhumerus -50.9006 26.3231 -92.1393
rradius 115.151
rwrist -17.7461
rhand -15.0964 47.0983
rfingers 7.12502
rthumb 11.0717 17.4103
lclavicle 3.13086e-015 -3.81667e-014
lhumerus -68.079 -4.51621 97.6066
lradius 85.6299
lwrist 19.2809
lhand -20.3903 6.33464
lfingers 7.12502
lthumb 5.96302 36.2307
rfemur -15.4592 -4.48474 20.4667
rtibia 65.5216
rfoot 1.92058 0.400206
rtoes -18.6082
lfemur -35.2086 -2.33692 -23.1303
ltibia 45.9921
lfoot -5.64436 0.645969
ltoes -16.2308
10
root -11.135 17.0145 -30.6254 -4.94446 -2.57537 -0.306533
lowerback 10.9357 0.584691 0.226174
upperback 3.83133 0.895482 3.4337
thorax -2.18713 0.430455 3.32909
lowerneck -10.0489 -2.75539 -9.52435
upperneck 14.5155 -2.61834 2.78995
head 6.23692 -1.57171 2.22676
rclavicle 5.26779e-015 1.43125e-014
rhumerus -45.2494 21.7248 -90.2486
rradius 117.051
rwrist -16.9867
rhand -15.1238 47.9581
rfingers 7.12502
rthumb 11.0453 18.2687
lclavicle 5.26779e-015 1.43125e-014
lhumerus -63.3372 -10.7394 96.1757
lradius 86.301
lwrist 20.3687
lhand -20.1605 6.16714
lfingers 7.12502
lthumb 6.18485 36.0569
rfemur -15.4239 -4.09619 19.4058
rtibia 67.424
rfoot 7.84786 2.88836
rtoes -6.9927
lfemur -33.9404 -1.33881 -23.823
ltibia 40.6019
lfoot -2.15843 -0.443247
ltoes -14.8835
11
root -11.1364 17.0493 -30.0789 -5.52532 -2.66868 -0.0184052
lowerback 10.6961 0.469857 0.119966
upperback 4.1719 0.709893 3.18792
thorax -1.6898 0.332734 3.15655
lowerneck -9.006 -2.47187 -9.46238
upperneck 13.9369 -2.36269 2.8618
head 5.85724 -1.43369 2.26856
rclavicle -1.37161e-014 -1.82882e-014
rhumerus -45.3015 22.3074 -90.5281
rradius 118.404
rwrist -16.1493
rhand -13.7984 46.0208
rfingers 7.12502
rthumb 12.3234 16.4039
lclavicle -1.37161e-014 -1.82882e-014
lhumerus -64.7243 -10.2225 95.7811
lradius 87.6216
lwrist 20.5139
lhand -19.8405 5.62838
lfingers 7.12502
lthumb 6.49379 35.5088
rfemur -15.2252 -4.19619 18.2525
rtibia 69.3021
rfoot 11.4144 5.20325
rtoes 1.73615
lfemur -32.318 -0.669235 -24.6333
ltibia 35.3587
lfoot 1.55156 -1.02966
ltoes -13.8401
12
root -11.1343 17.0687 -29.5363 -6.19152 -2.64504 0.234472
lowerback 12.4705 0.29956 -0.638433
upperback 3.1666 0.462741 3.43097
thorax -3.7017 0.2356 3.88346
lowerneck -7.38653 -1.76015 -10.0824
upperneck 14.7136 -1.52073 3.10663
head 5.77814 -1.06911 2.52659
rclavicle -2.38542e-014 -4.21423e-014
rhumerus -47.9008 23.4322 -91.1954
rradius 119.854
rwrist -14.9386
rhand -11.8939 41.162
rfingers 7.12502
rthumb 14.1593 11.6645
lclavicle -2.38542e-014 -4.21423e-014
lhumerus -68.1405 -8.66201 96.2248
lradius 89.044
lwrist 19.9291
lhand -19.9172 5.49728
lfingers 7.12502
lthumb 6.41977 35.38
rfemur -15.1231 -4.44281 17.1825
rtibia 71.2985
rfoot 11.532 6.69926
rtoes 3.41587
lfemur -30.5054 -0.223707 -25.3986
ltibia 30.5538
lfoot 4.84823 -0.774438
ltoes -12.5465
13
root -11.1321 17.0599 -28.9976 -6.80442 -2.44275 0.241063
lowerback 15.7324 0.52903 -2.4007
upperback 1.71837 0.635948 4.66391
thorax -7.07928 0.44832 6.25404
lowerneck -7.5964 -1.70065 -11.1384
upperneck 16.7326 -1.14726 2.41367
head 6.44594 -1.05654 2.5176
rclavicle -1.18277e-014 9.54166e-015
rhumerus -50.9679 24.6517 -90.5342
rradius 121.242
rwrist -13.3979
rhand -12.6272 36.2912
rfingers 7.12502
rthumb 13.4525 6.74557
lclavicle -1.18277e-014 9.54166e-015
lhumerus -71.3338 -6.87673 98.133
lradius 90.1254
lwrist 19.0365
lhand -19.7337 4.80645
lfingers 7.12502
lthumb 6.59694 34.6837
rfemur -15.1592 -4.79921 16.5048
rtibia 73.3006
rfoot 9.47569 6.39748
rtoes -1.63039
lfemur -28.8299 0.0724675 -25.9411
ltibia 26.5132
lfoot 7.83186 0.0112982
ltoes -11.6449
14
root -11.1301 17.0304 -28.4569 -7.185 -2.21202 0.035453
lowerback 16.0065 0.459514 -2.72081
upperback 1.69032 0.518419 5.05595
thorax -7.25397 0.412897 6.90604
lowerneck -6.99414 -1.74938 -11.5275
upperneck 16.8078 -1.20219 2.20874
head 6.37594 -1.1281 2.51261
rclavicle -1.0635e-014 6.04305e-014
rhumerus -51.6669 25.0822 -90.3736
rradius 122.073
rwrist -12.1759
rhand -14.6244 31.5484
rfingers 7.12502
rthumb 11.527 1.88533
lclavicle -1.0635e-014 6.04305e-014
lhumerus -72.3313 -6.22653 98.516
lradius 90.9339
lwrist 18.405
lhand -19.4109 3.37728
lfingers 7.12502
lthumb 6.9085 33.2446
rfemur -15.4527 -5.21945 16.1517
rtibia 75.2336
rfoot 7.11397 4.17412
rtoes 0.483579
lfemur -27.645 0.208681 -26.2013
ltibia 23.6409
lfoot 10.7045 1.08869
ltoes -10.368
15
root -11.1351 16.9938 -27.9146 -7.56463 -2.32399 -0.0801437
lowerback 15.9508 0.42159 -3.15043
upperback 1.8136 0.41203 5.35839
thorax -7.08064 0.370662 7.51309
lowerneck -6.322 -1.6332 -11.7711
upperneck 16.563 -1.07245 2.00873
head 6.17637 -1.08969 2.49778
rclavicle 5.46658e-015 -1.27222e-014
rhumerus -52.0144 25.4439 -90.2784
rradius 122.484
rwrist -11.482
rhand -15.5532 29.5479
rfingers 7.12502
rthumb 10.6312 -0.163206
lclavicle 5.46658e-015 -1.27222e-014
lhumerus -72.8373 -5.48299 98.5861
lradius 91.5582
lwrist 17.4611
lhand -19.0698 2.79787
lfingers 7.12502
lthumb 7.23773 32.6541
rfemur -16.3133 -5.46189 15.8844
rtibia 76.8693
rfoot 5.50235 0.939164
rtoes 0.777407
lfemur -26.7947 0.810842 -26.4919
ltibia 22.1645
lfoot 13.18 2.19084
ltoes -8.93299
